<?xml version="1.0" ?><svg data-name="Слой 1" id="Слой_1" viewBox="0 0 362.45 326.25" xmlns="http://www.w3.org/2000/svg"><defs><style>.cls-1{fill:#1e1f1d;}</style></defs><title/><path class="cls-1" d="M334.61,113.84h-16a3.39,3.39,0,0,1,0-6.78h16A3.39,3.39,0,1,1,334.61,113.84Z" transform="translate(-74.67 -99.05)"/><path class="cls-1" d="M425,173.09H368.94a3.39,3.39,0,0,1,0-6.78H425c1.43,0,3-2,3-4.81s-1.6-4.81-3-4.81H389.83a3.39,3.39,0,0,1,0-6.78H425c5.41,0,9.82,5.2,9.82,11.6S430.42,173.09,425,173.09Z" transform="translate(-74.67 -99.05)"/><path class="cls-1" d="M427.31,156.68H392.14a3.39,3.39,0,1,1,0-6.78h35.17c1.43,0,3-2,3-4.81s-1.59-4.81-3-4.81H392.14a3.39,3.39,0,1,1,0-6.78h35.17c5.41,0,9.81,5.2,9.81,11.59S432.73,156.68,427.31,156.68Z" transform="translate(-74.67 -99.05)"/><path class="cls-1" d="M425,140.29H389.83a3.39,3.39,0,0,1,0-6.78H425c1.43,0,3-2,3-4.81s-1.6-4.81-3-4.81H389.83a3.39,3.39,0,0,1,0-6.78H425c5.41,0,9.82,5.2,9.82,11.6S430.42,140.29,425,140.29Z" transform="translate(-74.67 -99.05)"/><path class="cls-1" d="M417.68,123.88H390.16a3.39,3.39,0,1,1,0-6.78h27.51a3.59,3.59,0,0,0,0-7.18H361.43a3.39,3.39,0,0,1,0-6.78h56.25A10.37,10.37,0,0,1,417.68,123.88Z" transform="translate(-74.67 -99.05)"/><path class="cls-1" d="M337.89,193.29a3.37,3.37,0,0,1-2-.67c-0.13-.1-3.23-2.41-7.52-6.15-1.25-1.09-2.39-2.18-3.44-3.26a49.08,49.08,0,0,1-9.41-13.49,3.39,3.39,0,0,1,6.18-2.8,42.54,42.54,0,0,0,8.11,11.57c0.92,1,1.92,1.91,3,2.87,4.08,3.56,7.08,5.8,7.11,5.82A3.39,3.39,0,0,1,337.89,193.29Z" transform="translate(-74.67 -99.05)"/><path class="cls-1" d="M340.59,188.83a3.39,3.39,0,0,1-3-5c6.1-11.13,17.63-17.51,31.64-17.51a3.39,3.39,0,0,1,0,6.78c-11.45,0-20.82,5.1-25.69,14A3.38,3.38,0,0,1,340.59,188.83Z" transform="translate(-74.67 -99.05)"/><path class="cls-1" d="M318.61,173.58H185.33a3.39,3.39,0,0,1,0-6.78H315.21V109.15H150.58a3.39,3.39,0,1,1,0-6.78h168a3.39,3.39,0,0,1,3.39,3.39v64.44A3.39,3.39,0,0,1,318.61,173.58Z" transform="translate(-74.67 -99.05)"/><path class="cls-1" d="M334.61,113.84a3.39,3.39,0,0,1-3.31-4.16,8.92,8.92,0,0,1,8.48-6.55h23.84a3.39,3.39,0,1,1,0,6.78H339.78a2.27,2.27,0,0,0-1.87,1.31A3.39,3.39,0,0,1,334.61,113.84Z" transform="translate(-74.67 -99.05)"/><path class="cls-1" d="M317.69,347.9a3.39,3.39,0,0,1-2.93-5.09l8-13.83a3.39,3.39,0,1,1,5.87,3.39l-8,13.83A3.39,3.39,0,0,1,317.69,347.9Z" transform="translate(-74.67 -99.05)"/><path class="cls-1" d="M229.91,407.58a13.14,13.14,0,0,1-6.53-1.81,12.52,12.52,0,0,1-5.94-7.42,9,9,0,0,1,.81-6.88l28-48.56a3.39,3.39,0,1,1,5.87,3.39l-28,48.56a2.3,2.3,0,0,0-.13,1.73,5.79,5.79,0,0,0,2.78,3.3,6.07,6.07,0,0,0,3.79.85,2.55,2.55,0,0,0,1.89-1.07L250,369.22a3.39,3.39,0,1,1,5.87,3.39l-17.59,30.45a9.21,9.21,0,0,1-6.81,4.4A11.49,11.49,0,0,1,229.91,407.58Z" transform="translate(-74.67 -99.05)"/><path class="cls-1" d="M242.92,417.76a13,13,0,0,1-6.48-1.78c-5.54-3.2-7.84-9.62-5.14-14.3l17.59-30.46a3.39,3.39,0,0,1,5.87,3.39l-17.59,30.46c-0.72,1.24.19,3.61,2.65,5s5,1,5.68-.23l17.59-30.47A3.39,3.39,0,1,1,269,382.8l-17.59,30.47A9.52,9.52,0,0,1,242.92,417.76Z" transform="translate(-74.67 -99.05)"/><path class="cls-1" d="M258.32,424a13.14,13.14,0,0,1-6.53-1.81,12.79,12.79,0,0,1-5.53-6.2,9.21,9.21,0,0,1,.4-8.1l17.58-30.46a3.39,3.39,0,1,1,5.87,3.39l-17.58,30.46a2.58,2.58,0,0,0,0,2.17,6.5,6.5,0,0,0,6.42,3.71,2.56,2.56,0,0,0,1.89-1.07l17.58-30.46a3.39,3.39,0,1,1,5.87,3.39l-17.58,30.46a9.21,9.21,0,0,1-6.82,4.4A11.46,11.46,0,0,1,258.32,424Z" transform="translate(-74.67 -99.05)"/><path class="cls-1" d="M273.5,425.3a10.37,10.37,0,0,1-9-15.57l13.75-23.83a3.39,3.39,0,1,1,5.87,3.39l-13.76,23.83a3.59,3.59,0,1,0,6.22,3.58L304.75,368a3.39,3.39,0,0,1,5.87,3.39L282.5,420.1a10.31,10.31,0,0,1-6.3,4.84A10.48,10.48,0,0,1,273.5,425.3Z" transform="translate(-74.67 -99.05)"/><path class="cls-1" d="M247.5,310.9a3.39,3.39,0,0,1-1.34-6.51c0.14-.06,3.44-1.47,8.83-3.31a50.57,50.57,0,0,1,20.69-2.77,3.4,3.4,0,0,1,3.07,3.69,3.43,3.43,0,0,1-3.69,3.07,44,44,0,0,0-17.87,2.43c-5.13,1.75-8.32,3.12-8.35,3.13A3.41,3.41,0,0,1,247.5,310.9Z" transform="translate(-74.67 -99.05)"/><path class="cls-1" d="M249.06,348.29a3.39,3.39,0,0,1-2.94-5.09c5.81-10.07,6.17-20.76,1-29.31a3.39,3.39,0,1,1,5.8-3.52c6.52,10.73,6.19,23.94-.91,36.22A3.39,3.39,0,0,1,249.06,348.29Z" transform="translate(-74.67 -99.05)"/><path class="cls-1" d="M329.76,336.39a3.37,3.37,0,0,1-1.69-.45l-55.8-32.21a3.39,3.39,0,0,1-1.24-4.63l67-116a3.39,3.39,0,1,1,5.87,3.39L278.6,299.54l49.93,28.82,83.75-145.06a3.39,3.39,0,1,1,5.87,3.39l-85.45,148A3.39,3.39,0,0,1,329.76,336.39Z" transform="translate(-74.67 -99.05)"/><path class="cls-1" d="M306.6,375a3.39,3.39,0,0,1-2.93-5.09l11.91-20.64a2.27,2.27,0,0,0-.2-2.27A3.39,3.39,0,1,1,320,342a8.93,8.93,0,0,1,1.44,10.61l-11.92,20.65A3.39,3.39,0,0,1,306.6,375Z" transform="translate(-74.67 -99.05)"/><path class="cls-1" d="M131.91,230.39a3.39,3.39,0,0,1-2.94-1.7l-8-13.83a3.39,3.39,0,0,1,5.87-3.39l8,13.83A3.39,3.39,0,0,1,131.91,230.39Z" transform="translate(-74.67 -99.05)"/><path class="cls-1" d="M158.07,157.2a3.39,3.39,0,0,1-2.94-1.7l-28-48.56a2.29,2.29,0,0,0-1.42-1,6.36,6.36,0,0,0-7,4.06,2.3,2.3,0,0,0,.13,1.73l17.58,30.46a3.39,3.39,0,0,1-5.87,3.39L112.9,115.15a9,9,0,0,1-.81-6.88,13.09,13.09,0,0,1,15.34-8.85,9,9,0,0,1,5.55,4.14l28,48.56A3.39,3.39,0,0,1,158.07,157.2Z" transform="translate(-74.67 -99.05)"/><path class="cls-1" d="M118.06,153.51a3.39,3.39,0,0,1-2.94-1.7L97.54,121.35c-2.71-4.69-.4-11.1,5.13-14.3a12.76,12.76,0,0,1,8.13-1.69,9.21,9.21,0,0,1,6.81,4.4l17.59,30.46a3.39,3.39,0,0,1-5.87,3.39l-17.59-30.46a2.56,2.56,0,0,0-1.89-1.07,6.07,6.07,0,0,0-3.79.85c-2.45,1.42-3.37,3.79-2.65,5L121,148.42A3.39,3.39,0,0,1,118.06,153.51Z" transform="translate(-74.67 -99.05)"/><path class="cls-1" d="M105,163.71a3.39,3.39,0,0,1-2.94-1.7L84.49,131.55c-2.71-4.69-.4-11.1,5.13-14.3s12.24-2,15,2.71l17.58,30.46a3.39,3.39,0,0,1-5.87,3.39L98.69,123.35c-0.72-1.24-3.22-1.64-5.68-.23s-3.37,3.79-2.65,5l17.58,30.46A3.39,3.39,0,0,1,105,163.71Z" transform="translate(-74.67 -99.05)"/><path class="cls-1" d="M107.12,195.29a3.39,3.39,0,0,1-2.94-1.7L76.06,144.88A10.37,10.37,0,0,1,94,134.5l13.76,23.84a3.39,3.39,0,0,1-5.87,3.39L88.15,137.89a3.59,3.59,0,0,0-6.22,3.59l28.12,48.72A3.39,3.39,0,0,1,107.12,195.29Z" transform="translate(-74.67 -99.05)"/><path class="cls-1" d="M181.94,201.36a3.39,3.39,0,0,1-2.74-5.39,42,42,0,0,0,7-16.71c1-5.37,1.57-9.35,1.58-9.4a3.39,3.39,0,0,1,6.73.89c0,0.17-.56,4.25-1.65,9.82a48.86,48.86,0,0,1-8.21,19.4A3.39,3.39,0,0,1,181.94,201.36Z" transform="translate(-74.67 -99.05)"/><path class="cls-1" d="M185.15,173.6c-12.45,0-23.41-6.66-30.18-18.38a3.39,3.39,0,0,1,5.87-3.39c5.71,9.89,14.58,15.29,24.93,15a3.44,3.44,0,0,1,3.47,3.32,3.4,3.4,0,0,1-3.32,3.47h-0.77Z" transform="translate(-74.67 -99.05)"/><path class="cls-1" d="M213.51,381.1a3.39,3.39,0,0,1-2.94-1.7L124.92,231.06a3.39,3.39,0,0,1,1.24-4.63L182,194.21a3.39,3.39,0,0,1,4.63,1.24l66.29,114.81a3.39,3.39,0,0,1-5.88,3.39L182.42,201.78l-49.93,28.83,84,145.4A3.39,3.39,0,0,1,213.51,381.1Z" transform="translate(-74.67 -99.05)"/><path class="cls-1" d="M122.7,216.72a9.08,9.08,0,0,1-7.7-4.39L103.08,191.7a3.39,3.39,0,0,1,5.87-3.39l11.92,20.64a2.23,2.23,0,0,0,2.08,1,3.39,3.39,0,1,1,2,6.5A7.71,7.71,0,0,1,122.7,216.72Z" transform="translate(-74.67 -99.05)"/></svg>